<svg xmlns="http://www.w3.org/2000/svg" width="32" height="32" viewBox="0 0 16 16">
  <defs>
    <!-- Define a linear gradient with the desired color -->
    <linearGradient id="grad" x1="0%" y1="0%" x2="100%" y2="100%">
      <stop offset="0%" style="stop-color:#65f784;stop-opacity:1" />
      <stop offset="100%" style="stop-color:#18ed4a;stop-opacity:1" />
    </linearGradient>
    <!-- Define a filter for shadow -->
    <filter id="shadow" width="150%" height="150%">
      <feDropShadow dx="2" dy="2" stdDeviation="2" flood-color="#000" flood-opacity="0.5" />
    </filter>
  </defs>
  <!-- Apply the linear gradient and shadow filter -->
      <path d="M8 16s6-5.686 6-10A6 6 0 0 0 2 6c0 4.314 6 10 6 10" stroke="#12b839" stroke-width="0.2" fill="none" />

  <path d="M8 16s6-5.686 6-10A6 6 0 0 0 2 6c0 4.314 6 10 6 10m0-7a3 3 0 1 1 0-6 3 3 0 0 1 0 6" fill="url(#grad)" filter="url(#shadow)" />
</svg>
